<svg width="145" height="32" viewBox="0 0 145 32" fill="none" xmlns="http://www.w3.org/2000/svg">
<path d="M0.5 4C0.5 2.067 2.067 0.5 4 0.5H141C142.933 0.5 144.5 2.067 144.5 4V28C144.5 29.933 142.933 31.5 141 31.5H4C2.06701 31.5 0.5 29.933 0.5 28V4Z" fill="white" stroke="#2D9CDB"/>
<path d="M10.0568 20H15.392V19.0625H11.1136V16.0966H15.0511V15.1591H11.1136V12.2102H15.3239V11.2727H10.0568V20ZM20.8423 15.1676H17.0241V16.1051H20.8423V15.1676ZM28.7141 14H29.805C29.4812 12.3125 28.0664 11.1534 26.2255 11.1534C23.9883 11.1534 22.4073 12.875 22.4073 15.6364C22.4073 18.3977 23.9755 20.1193 26.2937 20.1193C28.3732 20.1193 29.8562 18.7344 29.8562 16.5739V15.6364H26.5323V16.5739H28.8335C28.8036 18.142 27.7724 19.1307 26.2937 19.1307C24.6744 19.1307 23.43 17.9034 23.43 15.6364C23.43 13.3693 24.6744 12.142 26.2255 12.142C27.4869 12.142 28.3434 12.8537 28.7141 14ZM34.3594 20C37.0185 20 38.5185 18.3466 38.5185 15.6193C38.5185 12.9091 37.0185 11.2727 34.4787 11.2727H31.6662V20H34.3594ZM32.723 19.0625V12.2102H34.4105C36.456 12.2102 37.4957 13.5057 37.4957 15.6193C37.4957 17.75 36.456 19.0625 34.2912 19.0625H32.723ZM43.9048 15.1676H40.0866V16.1051H43.9048V15.1676ZM45.2472 20H50.7528V19.0625H46.696V18.9943L48.6562 16.8977C50.1562 15.2912 50.5994 14.5412 50.5994 13.5739C50.5994 12.2273 49.5085 11.1534 47.9744 11.1534C46.4446 11.1534 45.2812 12.1932 45.2812 13.7273H46.2869C46.2869 12.7344 46.9304 12.0739 47.9403 12.0739C48.8864 12.0739 49.6108 12.6534 49.6108 13.5739C49.6108 14.3793 49.1378 14.9759 48.1278 16.0795L45.2472 19.233V20ZM55.3594 20.1193C57.2855 20.1193 58.3935 18.4872 58.3935 15.6364C58.3935 12.8068 57.2685 11.1534 55.3594 11.1534C53.4503 11.1534 52.3253 12.8068 52.3253 15.6364C52.3253 18.4872 53.4332 20.1193 55.3594 20.1193ZM55.3594 19.1818C54.0895 19.1818 53.348 17.9077 53.348 15.6364C53.348 13.3693 54.098 12.0739 55.3594 12.0739C56.6207 12.0739 57.3707 13.3693 57.3707 15.6364C57.3707 17.9077 56.6293 19.1818 55.3594 19.1818ZM63.081 11.2727H62.0241L59.8423 12.7216V13.7955L61.973 12.3807H62.0241V20H63.081V11.2727ZM68.3693 11.1364C66.5966 11.1193 65.4545 12.4489 65.4545 14.0682C65.4545 15.7557 66.6989 16.9659 68.1989 16.9659C69.1023 16.9659 69.8693 16.5227 70.3466 15.8068H70.4148C70.4148 17.9545 69.5795 19.1818 68.233 19.1818C67.3125 19.1818 66.75 18.6023 66.5625 17.8011H65.5227C65.7273 19.1818 66.767 20.1193 68.233 20.1193C70.1932 20.1193 71.4034 18.3807 71.4034 15.2784C71.4034 12.0568 69.8011 11.1534 68.3693 11.1364ZM68.3693 12.0739C69.4602 12.0739 70.2614 13.0114 70.2614 14.0511C70.2614 15.0909 69.4091 16.0284 68.3352 16.0284C67.2614 16.0284 66.4773 15.1591 66.4773 14.0682C66.4773 12.9602 67.2955 12.0739 68.3693 12.0739ZM76.8462 15.1676H73.0281V16.1051H76.8462V15.1676ZM78.7521 20H84.0874V19.0625H79.8089V16.0966H83.7464V15.1591H79.8089V12.2102H84.0192V11.2727H78.7521V20ZM89.5376 15.1676H85.7195V16.1051H89.5376V15.1676ZM96.2163 13.4545H97.239C97.1921 12.1378 95.9776 11.1534 94.2901 11.1534C92.6197 11.1534 91.3072 12.125 91.3072 13.5909C91.3072 14.767 92.1594 15.4659 93.5231 15.858L94.5969 16.1648C95.5174 16.4205 96.3356 16.7443 96.3356 17.6136C96.3356 18.5682 95.4151 19.1989 94.2049 19.1989C93.1651 19.1989 92.2447 18.7386 92.1594 17.75H91.0685C91.1708 19.1818 92.3299 20.1534 94.2049 20.1534C96.2163 20.1534 97.3583 19.0455 97.3583 17.6307C97.3583 15.9943 95.8072 15.4659 94.9038 15.2273L94.0174 14.9886C93.3697 14.8182 92.3299 14.4773 92.3299 13.5398C92.3299 12.7045 93.0969 12.0909 94.256 12.0909C95.3129 12.0909 96.114 12.5938 96.2163 13.4545ZM102.71 15.7898H98.8913V16.7273H102.71V15.7898ZM107.326 13.4545H105.928V11.8864H104.922V13.4545H103.934V14.3068H104.922V18.3977C104.922 19.5398 105.843 20.0852 106.695 20.0852C107.07 20.0852 107.309 20.017 107.445 19.9659L107.24 19.0625C107.155 19.0795 107.019 19.1136 106.797 19.1136C106.354 19.1136 105.928 18.9773 105.928 18.125V14.3068H107.326V13.4545ZM110.765 20.1534C111.907 20.1534 112.503 19.5398 112.708 19.1136H112.759V20H113.765V15.6875C113.765 13.608 112.179 13.3693 111.344 13.3693C110.355 13.3693 109.23 13.7102 108.719 14.9034L109.674 15.2443C109.895 14.767 110.419 14.2557 111.378 14.2557C112.303 14.2557 112.759 14.7457 112.759 15.5852V15.6193C112.759 16.1051 112.265 16.0625 111.071 16.2159C109.857 16.3736 108.532 16.642 108.532 18.142C108.532 19.4205 109.52 20.1534 110.765 20.1534ZM110.918 19.25C110.117 19.25 109.537 18.892 109.537 18.1932C109.537 17.4261 110.236 17.1875 111.02 17.0852C111.446 17.0341 112.588 16.9148 112.759 16.7102V17.6307C112.759 18.4489 112.111 19.25 110.918 19.25ZM116.606 11.2727H115.6V20H116.606V11.2727Z" fill="#2D9CDB"/>
<path d="M127 15L131 19L135 15" stroke="#2D9CDB"/>
</svg>
